# xmcd
#
# Track frame offsets: 
#        150
#        31837
#        57527
#        95730
#        130995
#        157787
#        186465
#        219890
#        248172
#
# Disc length: 3597 seconds
#
# Revision: 39
# Processed by: cddbd v1.5.1PL2 Copyright (c) Steve Scherf et al.
# Submitted via: ExactAudioCopy v0.95b3
#
DISCID=790e0b09,820e0b09
DTITLE=St Germain - Tourist
DYEAR=2000
DGENRE=Jazz
TTITLE0=Rose Rouge
TTITLE1=Montego Bay Spleen
TTITLE2=So Flute
TTITLE3=Land Of...
TTITLE4=Latin Note
TTITLE5=Sure Thing
TTITLE6=Pont des Arts
TTITLE7=La goutte d'or
TTITLE8=What You Think About...
EXTD=(c) Blue Note\n7243 5 26201 2 8\ncomposer - Ludovic Navarre\nID3G
EXTD=: 8 YEAR: 2000\nPlease respect foreign languages: no capitals in 
EXTD=French!\n
EXTT0=
EXTT1=
EXTT2=
EXTT3=
EXTT4=
EXTT5=
EXTT6=
EXTT7=
EXTT8=
PLAYORDER=
